<?xml version="1.0" encoding="utf-8"?>
<!-- Generator: Adobe Illustrator 16.0.0, SVG Export Plug-In . SVG Version: 6.00 Build 0)  -->
<!DOCTYPE svg PUBLIC "-//W3C//DTD SVG 1.1//EN" "http://www.w3.org/Graphics/SVG/1.1/DTD/svg11.dtd">
<svg version="1.1" id="Layer_1" xmlns="http://www.w3.org/2000/svg" xmlns:xlink="http://www.w3.org/1999/xlink" x="0px" y="0px"
	 width="240px" height="60px" viewBox="0 0 240 60" enable-background="new 0 0 240 60" xml:space="preserve">
<g>
	<g>
		<path fill="#FFFFFF" d="M9.881,0.152h5.646l9.881,27.086h-6.409L16.9,21.173H8.469l-2.06,6.065H0L9.881,0.152z M15.871,16.862
			l-3.167-9.576l-3.243,9.576H15.871z"/>
		<path fill="#FFFFFF" d="M39.638,0.152l5.914,9.347l5.913-9.347h6.752l-9.385,13.733l9.08,13.353h-6.752l-5.608-8.965l-5.608,8.965
			h-6.791l9.08-13.353L32.847,0.152H39.638z"/>
		<path fill="#FFFFFF" d="M78.817,27.467c-2.009,0-3.84-0.394-5.493-1.183c-1.653-0.787-3.065-1.824-4.235-3.108
			c-1.17-1.284-2.079-2.753-2.728-4.406c-0.648-1.653-0.972-3.357-0.972-5.112c0-1.78,0.336-3.497,1.01-5.15
			c0.674-1.652,1.615-3.109,2.823-4.368c1.208-1.259,2.638-2.264,4.292-3.014C75.167,0.375,76.973,0,78.932,0
			c2.009,0,3.84,0.394,5.494,1.183c1.653,0.788,3.064,1.831,4.234,3.128s2.073,2.772,2.709,4.425
			c0.635,1.654,0.954,3.333,0.954,5.036c0,1.78-0.337,3.497-1.011,5.15c-0.674,1.653-1.609,3.109-2.804,4.368
			c-1.196,1.259-2.62,2.27-4.273,3.033C82.581,27.086,80.776,27.467,78.817,27.467z M71.76,13.733c0,1.043,0.152,2.055,0.458,3.033
			c0.305,0.979,0.756,1.851,1.354,2.613s1.341,1.373,2.232,1.831c0.89,0.458,1.908,0.687,3.052,0.687
			c1.195,0,2.237-0.241,3.128-0.725c0.89-0.483,1.627-1.112,2.212-1.889c0.585-0.775,1.024-1.652,1.316-2.632
			s0.438-1.978,0.438-2.995c0-1.043-0.152-2.054-0.457-3.033c-0.305-0.979-0.763-1.844-1.374-2.595
			c-0.611-0.749-1.354-1.348-2.232-1.792C81.011,5.792,80,5.569,78.856,5.569c-1.196,0-2.232,0.235-3.11,0.705
			c-0.877,0.472-1.615,1.088-2.212,1.851c-0.598,0.764-1.044,1.635-1.335,2.613C71.906,11.718,71.76,12.717,71.76,13.733z"/>
		<path fill="#FFFFFF" d="M109.833,11.75v15.488h-6.257V0.152h4.883l12.628,15.908V0.152h6.256v27.086h-5.035L109.833,11.75z"/>
		<path fill="#FFFFFF" d="M152.026,27.467c-2.01,0-3.841-0.394-5.494-1.183c-1.652-0.787-3.063-1.824-4.233-3.108
			c-1.171-1.284-2.08-2.753-2.729-4.406s-0.973-3.357-0.973-5.112c0-1.78,0.338-3.497,1.011-5.15
			c0.674-1.652,1.615-3.109,2.823-4.368s2.638-2.264,4.292-3.014C148.376,0.375,150.183,0,152.141,0
			c2.009,0,3.841,0.394,5.494,1.183c1.653,0.788,3.065,1.831,4.234,3.128c1.17,1.297,2.072,2.772,2.709,4.425
			c0.636,1.654,0.954,3.333,0.954,5.036c0,1.78-0.339,3.497-1.011,5.15c-0.675,1.653-1.609,3.109-2.804,4.368
			c-1.197,1.259-2.621,2.27-4.273,3.033C155.79,27.086,153.985,27.467,152.026,27.467z M144.969,13.733
			c0,1.043,0.152,2.055,0.458,3.033c0.306,0.979,0.757,1.851,1.354,2.613s1.341,1.373,2.231,1.831
			c0.89,0.458,1.907,0.687,3.053,0.687c1.195,0,2.237-0.241,3.127-0.725c0.891-0.483,1.628-1.112,2.213-1.889
			c0.585-0.775,1.024-1.652,1.317-2.632c0.291-0.979,0.438-1.978,0.438-2.995c0-1.043-0.152-2.054-0.458-3.033
			c-0.304-0.979-0.763-1.844-1.372-2.595c-0.611-0.749-1.354-1.348-2.232-1.792c-0.877-0.445-1.889-0.668-3.032-0.668
			c-1.197,0-2.232,0.235-3.109,0.705c-0.878,0.472-1.616,1.088-2.213,1.851c-0.598,0.764-1.044,1.635-1.335,2.613
			C145.115,11.718,144.969,12.717,144.969,13.733z"/>
		<path fill="#FFFFFF" d="M198.15,27.238V11.024l-5.876,11.789h-3.356l-5.875-11.789v16.214h-6.257V0.152h6.791l7.02,14.153
			l7.058-14.153h6.753v27.086H198.15z"/>
		<path fill="#FFFFFF" d="M221.422,0.152l5.836,12.437l5.914-12.437H240l-9.652,17.854v9.232h-6.219V17.93l-9.498-17.777H221.422z"
			/>
	</g>
</g>
<g>
	<path fill="#FFFFFF" d="M0,43.727c0-1.191,0.21-2.377,0.628-3.56c0.418-1.181,1.028-2.237,1.829-3.168
		c0.8-0.931,1.786-1.688,2.958-2.274c1.172-0.587,2.502-0.88,3.992-0.88c1.768,0,3.28,0.4,4.536,1.2
		c1.256,0.801,2.182,1.843,2.777,3.127l-1.535,0.948c-0.317-0.65-0.703-1.2-1.159-1.646c-0.456-0.446-0.945-0.81-1.465-1.089
		c-0.521-0.279-1.061-0.479-1.619-0.6c-0.559-0.121-1.107-0.182-1.647-0.182c-1.191,0-2.243,0.242-3.154,0.726
		c-0.912,0.484-1.679,1.116-2.303,1.897c-0.624,0.782-1.093,1.661-1.41,2.639c-0.316,0.977-0.474,1.968-0.474,2.973
		c0,1.099,0.19,2.149,0.572,3.154c0.381,1.005,0.902,1.894,1.563,2.666s1.442,1.387,2.345,1.842
		c0.903,0.457,1.884,0.684,2.945,0.684c0.558,0,1.13-0.069,1.717-0.209c0.586-0.139,1.154-0.362,1.703-0.67
		c0.549-0.307,1.056-0.688,1.521-1.145c0.465-0.455,0.855-1.009,1.172-1.66l1.619,0.837c-0.316,0.745-0.763,1.4-1.34,1.968
		c-0.577,0.568-1.219,1.047-1.926,1.438c-0.708,0.391-1.457,0.688-2.247,0.894c-0.791,0.205-1.568,0.307-2.331,0.307
		c-1.358,0-2.605-0.297-3.74-0.893c-1.136-0.596-2.112-1.372-2.931-2.331c-0.819-0.958-1.456-2.047-1.912-3.266S0,44.992,0,43.727z"
		/>
	<path fill="#FFFFFF" d="M26.267,54.055c-1.061,0-2.028-0.2-2.903-0.601c-0.875-0.399-1.632-0.944-2.274-1.633
		s-1.14-1.488-1.494-2.4c-0.354-0.911-0.53-1.87-0.53-2.875c0-1.023,0.181-1.991,0.544-2.903c0.363-0.912,0.865-1.712,1.507-2.4
		s1.4-1.237,2.275-1.647c0.875-0.409,1.833-0.613,2.875-0.613s2.005,0.204,2.889,0.613c0.884,0.41,1.647,0.959,2.289,1.647
		c0.642,0.688,1.145,1.488,1.508,2.4c0.363,0.912,0.544,1.88,0.544,2.903c0,1.005-0.177,1.964-0.53,2.875
		c-0.354,0.912-0.852,1.712-1.494,2.4s-1.405,1.233-2.289,1.633C28.299,53.854,27.327,54.055,26.267,54.055z M20.991,46.573
		c0,0.819,0.14,1.577,0.419,2.275c0.279,0.697,0.656,1.312,1.131,1.842s1.032,0.945,1.674,1.242
		c0.642,0.298,1.326,0.447,2.052,0.447s1.41-0.154,2.052-0.461s1.205-0.726,1.688-1.256c0.484-0.53,0.866-1.149,1.145-1.856
		c0.279-0.707,0.419-1.47,0.419-2.289c0-0.8-0.14-1.559-0.419-2.275c-0.279-0.716-0.661-1.339-1.145-1.87
		c-0.483-0.53-1.046-0.949-1.688-1.256s-1.326-0.461-2.052-0.461s-1.405,0.154-2.038,0.461c-0.633,0.307-1.191,0.73-1.675,1.271
		c-0.483,0.54-0.865,1.168-1.144,1.884C21.131,44.987,20.991,45.755,20.991,46.573z"/>
	<path fill="#FFFFFF" d="M48.904,53.775h-1.898v-8.123c0-1.73-0.256-2.987-0.768-3.769c-0.512-0.781-1.298-1.172-2.358-1.172
		c-0.559,0-1.117,0.103-1.675,0.307c-0.558,0.205-1.075,0.493-1.549,0.865c-0.475,0.373-0.898,0.814-1.27,1.326
		s-0.642,1.065-0.81,1.661v8.904h-1.898V39.232h1.73v3.293c0.596-1.061,1.447-1.916,2.554-2.567
		c1.107-0.651,2.313-0.977,3.615-0.977c0.799,0,1.479,0.148,2.038,0.446c0.558,0.298,1.005,0.716,1.34,1.256s0.577,1.2,0.726,1.981
		c0.148,0.782,0.223,1.647,0.223,2.597V53.775z"/>
	<path fill="#FFFFFF" d="M57.781,54.055c-1.135,0-2.243-0.187-3.322-0.559s-2.009-0.911-2.791-1.619l0.865-1.284
		c0.818,0.67,1.651,1.173,2.498,1.508s1.754,0.503,2.722,0.503c1.172,0,2.107-0.238,2.806-0.713
		c0.698-0.475,1.046-1.148,1.046-2.023c0-0.409-0.093-0.749-0.279-1.019c-0.187-0.27-0.461-0.507-0.824-0.712
		s-0.819-0.386-1.368-0.545c-0.549-0.157-1.187-0.32-1.912-0.488c-0.837-0.204-1.563-0.409-2.177-0.614
		c-0.614-0.204-1.122-0.437-1.521-0.697s-0.698-0.582-0.893-0.963c-0.195-0.382-0.293-0.861-0.293-1.438
		c0-0.727,0.144-1.368,0.433-1.927c0.288-0.558,0.679-1.019,1.172-1.381c0.493-0.363,1.07-0.638,1.73-0.824
		c0.66-0.186,1.363-0.278,2.107-0.278c1.117,0,2.131,0.181,3.043,0.544c0.911,0.362,1.646,0.842,2.205,1.438l-0.921,1.116
		c-0.541-0.558-1.196-0.977-1.968-1.256c-0.772-0.279-1.577-0.419-2.415-0.419c-0.502,0-0.968,0.052-1.396,0.154
		c-0.428,0.102-0.805,0.265-1.13,0.488c-0.326,0.223-0.582,0.507-0.768,0.851c-0.187,0.345-0.279,0.75-0.279,1.215
		c0,0.391,0.064,0.707,0.195,0.949c0.13,0.242,0.344,0.451,0.642,0.628c0.297,0.177,0.674,0.335,1.13,0.475
		c0.456,0.14,1.009,0.284,1.661,0.433c0.93,0.224,1.749,0.446,2.457,0.67c0.707,0.223,1.298,0.484,1.772,0.781
		c0.475,0.298,0.833,0.661,1.075,1.089c0.241,0.428,0.362,0.949,0.362,1.563c0,1.34-0.512,2.4-1.535,3.182
		C60.888,53.664,59.512,54.055,57.781,54.055z"/>
	<path fill="#FFFFFF" d="M71.096,54.055c-1.582,0-2.759-0.525-3.531-1.577c-0.772-1.052-1.159-2.619-1.159-4.704v-8.541h1.898v8.206
		c0,3.294,1.126,4.941,3.377,4.941c0.559,0,1.107-0.093,1.647-0.279c0.54-0.186,1.037-0.456,1.493-0.81s0.866-0.772,1.229-1.256
		c0.363-0.484,0.656-1.033,0.879-1.647v-9.155h1.898v12.087c0,0.521,0.224,0.781,0.67,0.781v1.675
		c-0.223,0.037-0.405,0.056-0.544,0.056s-0.237,0-0.293,0c-0.446-0.019-0.81-0.177-1.088-0.475c-0.279-0.297-0.418-0.698-0.418-1.2
		v-1.675c-0.633,1.136-1.494,2.015-2.583,2.638C73.483,53.743,72.324,54.055,71.096,54.055z"/>
	<path fill="#FFFFFF" d="M83.21,33.398h1.898v17.083c0,0.54,0.149,0.963,0.447,1.271c0.297,0.307,0.716,0.46,1.256,0.46
		c0.204,0,0.447-0.028,0.726-0.083c0.279-0.057,0.54-0.131,0.782-0.224l0.335,1.535c-0.354,0.148-0.787,0.27-1.298,0.362
		c-0.512,0.094-0.954,0.14-1.325,0.14c-0.875,0-1.563-0.246-2.066-0.739s-0.754-1.187-0.754-2.08V33.398z"/>
	<path fill="#FFFFFF" d="M97.698,53.077c-0.112,0.056-0.275,0.131-0.489,0.224c-0.214,0.094-0.46,0.187-0.739,0.279
		c-0.28,0.093-0.596,0.177-0.949,0.251c-0.354,0.074-0.726,0.111-1.117,0.111c-0.41,0-0.8-0.056-1.172-0.167
		s-0.698-0.283-0.977-0.517c-0.279-0.232-0.502-0.525-0.67-0.879c-0.167-0.354-0.251-0.763-0.251-1.229V40.739h-2.009v-1.507h2.009
		v-4.913h1.898v4.913h3.35v1.507h-3.35v9.882c0.037,0.54,0.228,0.935,0.572,1.187c0.344,0.251,0.74,0.376,1.186,0.376
		c0.54,0,1.015-0.088,1.424-0.265c0.409-0.177,0.67-0.302,0.782-0.377L97.698,53.077z"/>
	<path fill="#FFFFFF" d="M100.07,36.189v-2.791h1.898v2.791H100.07z M100.07,53.775V39.232h1.898v14.543H100.07z"/>
	<path fill="#FFFFFF" d="M118.381,53.775h-1.898v-8.123c0-1.73-0.256-2.987-0.768-3.769c-0.512-0.781-1.298-1.172-2.358-1.172
		c-0.558,0-1.117,0.103-1.675,0.307c-0.559,0.205-1.075,0.493-1.55,0.865c-0.475,0.373-0.898,0.814-1.27,1.326
		s-0.642,1.065-0.81,1.661v8.904h-1.897V39.232h1.73v3.293c0.595-1.061,1.446-1.916,2.554-2.567
		c1.107-0.651,2.313-0.977,3.615-0.977c0.8,0,1.479,0.148,2.038,0.446c0.558,0.298,1.005,0.716,1.34,1.256s0.577,1.2,0.726,1.981
		c0.148,0.782,0.223,1.647,0.223,2.597V53.775z"/>
	<path fill="#FFFFFF" d="M128.263,53.971c-1.006,0-1.922-0.21-2.75-0.628c-0.828-0.419-1.544-0.973-2.149-1.661
		c-0.604-0.688-1.074-1.479-1.409-2.373c-0.335-0.893-0.503-1.813-0.503-2.763c0-1.005,0.163-1.969,0.488-2.89
		c0.326-0.921,0.786-1.726,1.383-2.414c0.596-0.688,1.306-1.237,2.136-1.647c0.827-0.409,1.744-0.613,2.749-0.613
		c1.246,0,2.325,0.312,3.238,0.935c0.911,0.624,1.691,1.41,2.344,2.358v-3.042h1.703v14.599c0,1.005-0.191,1.894-0.572,2.666
		c-0.382,0.771-0.893,1.419-1.535,1.939c-0.643,0.521-1.396,0.912-2.261,1.173C130.259,59.87,129.342,60,128.375,60
		c-1.676,0-3.025-0.298-4.049-0.893c-1.023-0.597-1.852-1.396-2.484-2.401l1.172-0.921c0.578,0.931,1.341,1.614,2.29,2.052
		c0.948,0.437,1.973,0.655,3.071,0.655c0.706,0,1.376-0.098,2.009-0.293c0.633-0.194,1.187-0.484,1.661-0.865
		c0.475-0.382,0.851-0.865,1.13-1.451c0.28-0.586,0.419-1.271,0.419-2.052v-2.875c-0.558,0.931-1.321,1.666-2.289,2.205
		C130.337,53.701,129.323,53.971,128.263,53.971z M128.793,52.38c0.559,0,1.106-0.103,1.647-0.308
		c0.539-0.204,1.027-0.479,1.464-0.823c0.438-0.345,0.806-0.73,1.104-1.158c0.297-0.428,0.493-0.865,0.586-1.313v-4.494
		c-0.205-0.521-0.483-1.004-0.837-1.451c-0.354-0.446-0.754-0.827-1.2-1.145c-0.446-0.316-0.927-0.567-1.438-0.754
		c-0.512-0.186-1.029-0.279-1.55-0.279c-0.818,0-1.549,0.173-2.19,0.517c-0.643,0.345-1.187,0.796-1.634,1.354
		c-0.446,0.559-0.786,1.191-1.019,1.898c-0.233,0.708-0.35,1.424-0.35,2.149c0,0.782,0.14,1.526,0.42,2.233
		c0.278,0.707,0.664,1.326,1.157,1.856c0.494,0.53,1.065,0.949,1.717,1.256C127.323,52.226,128.03,52.38,128.793,52.38z"/>
	<path fill="#FFFFFF" d="M147.188,53.775V33.956h1.954v18.089h11.444v1.73H147.188z"/>
	<path fill="#FFFFFF" d="M163.07,36.189v-2.791h1.898v2.791H163.07z M163.07,53.775V39.232h1.898v14.543H163.07z"/>
	<path fill="#FFFFFF" d="M190.789,53.775h-1.898v-8.123c0-1.693-0.271-2.94-0.81-3.74s-1.34-1.2-2.401-1.2
		c-0.558,0-1.084,0.103-1.576,0.307c-0.493,0.205-0.948,0.493-1.367,0.865c-0.42,0.373-0.787,0.814-1.104,1.326
		s-0.558,1.074-0.725,1.688v8.877h-1.898v-8.123c0-1.73-0.262-2.987-0.782-3.769s-1.321-1.172-2.4-1.172
		c-1.099,0-2.075,0.381-2.932,1.145c-0.855,0.763-1.47,1.768-1.842,3.015v8.904h-1.898V39.232h1.73v3.293
		c0.596-1.116,1.377-1.985,2.345-2.609c0.968-0.623,2.038-0.935,3.211-0.935c1.229,0,2.21,0.345,2.943,1.032
		c0.736,0.688,1.188,1.591,1.355,2.708c1.357-2.494,3.229-3.74,5.609-3.74c0.819,0,1.513,0.148,2.08,0.446
		c0.568,0.298,1.024,0.721,1.369,1.27c0.344,0.549,0.595,1.21,0.753,1.982s0.237,1.633,0.237,2.582V53.775z"/>
	<path fill="#FFFFFF" d="M194.809,36.189v-2.791h1.897v2.791H194.809z M194.809,53.775V39.232h1.897v14.543H194.809z"/>
	<path fill="#FFFFFF" d="M207.871,53.077c-0.111,0.056-0.274,0.131-0.488,0.224c-0.214,0.094-0.461,0.187-0.74,0.279
		c-0.278,0.093-0.596,0.177-0.948,0.251c-0.354,0.074-0.726,0.111-1.117,0.111c-0.409,0-0.8-0.056-1.173-0.167
		c-0.371-0.111-0.696-0.283-0.976-0.517c-0.28-0.232-0.503-0.525-0.671-0.879s-0.252-0.763-0.252-1.229V40.739h-2.009v-1.507h2.009
		v-4.913h1.898v4.913h3.351v1.507h-3.351v9.882c0.037,0.54,0.229,0.935,0.573,1.187c0.345,0.251,0.739,0.376,1.186,0.376
		c0.54,0,1.015-0.088,1.425-0.265c0.408-0.177,0.67-0.302,0.781-0.377L207.871,53.077z"/>
	<path fill="#FFFFFF" d="M216.162,54.055c-1.061,0-2.033-0.2-2.916-0.601c-0.885-0.399-1.652-0.949-2.304-1.646
		c-0.652-0.698-1.159-1.503-1.521-2.415c-0.364-0.911-0.546-1.889-0.546-2.931c0-1.023,0.182-1.986,0.546-2.889
		c0.361-0.903,0.864-1.694,1.507-2.373c0.642-0.68,1.409-1.219,2.302-1.619c0.894-0.4,1.861-0.6,2.904-0.6
		c1.06,0,2.032,0.199,2.916,0.6c0.885,0.4,1.643,0.944,2.275,1.633s1.125,1.479,1.479,2.373c0.353,0.893,0.53,1.842,0.53,2.848
		c0,0.148,0,0.297,0,0.446c0,0.148-0.01,0.251-0.027,0.307h-12.45c0.057,0.781,0.237,1.503,0.544,2.163
		c0.307,0.661,0.702,1.233,1.188,1.717c0.482,0.484,1.036,0.861,1.66,1.131c0.623,0.271,1.288,0.405,1.996,0.405
		c0.465,0,0.93-0.065,1.396-0.196c0.465-0.13,0.893-0.307,1.284-0.53c0.391-0.223,0.743-0.498,1.061-0.823
		c0.315-0.325,0.559-0.684,0.726-1.075l1.647,0.447c-0.223,0.54-0.541,1.028-0.949,1.465c-0.409,0.438-0.885,0.819-1.424,1.145
		c-0.54,0.326-1.135,0.577-1.787,0.754C217.549,53.966,216.869,54.055,216.162,54.055z M221.521,45.736
		c-0.055-0.782-0.237-1.494-0.544-2.136c-0.308-0.642-0.699-1.195-1.172-1.661c-0.476-0.465-1.024-0.827-1.647-1.088
		c-0.624-0.261-1.289-0.392-1.996-0.392s-1.377,0.131-2.01,0.392s-1.188,0.623-1.661,1.088c-0.474,0.466-0.856,1.024-1.144,1.675
		c-0.289,0.651-0.462,1.359-0.518,2.122H221.521z"/>
	<path fill="#FFFFFF" d="M232.24,54.055c-1.005,0-1.936-0.21-2.792-0.629c-0.855-0.418-1.592-0.972-2.205-1.66
		c-0.614-0.688-1.093-1.484-1.437-2.387c-0.345-0.902-0.518-1.847-0.518-2.833c0-1.023,0.168-1.996,0.503-2.918
		c0.335-0.921,0.795-1.726,1.382-2.414c0.586-0.688,1.283-1.232,2.093-1.633s1.698-0.6,2.667-0.6c1.227,0,2.315,0.32,3.266,0.963
		c0.948,0.642,1.692,1.419,2.232,2.33v-8.876h1.898v17.921c0,0.521,0.223,0.781,0.67,0.781v1.675
		c-0.279,0.056-0.502,0.084-0.67,0.084c-0.447,0-0.838-0.145-1.173-0.434c-0.335-0.288-0.503-0.637-0.503-1.046v-1.424
		c-0.576,0.949-1.357,1.702-2.344,2.261S233.301,54.055,232.24,54.055z M232.658,52.38c0.466,0,0.964-0.093,1.494-0.279
		c0.53-0.186,1.027-0.441,1.493-0.768c0.465-0.325,0.86-0.707,1.187-1.145c0.325-0.437,0.524-0.907,0.6-1.41v-4.494
		c-0.186-0.502-0.457-0.972-0.809-1.409c-0.354-0.438-0.76-0.823-1.215-1.159c-0.456-0.334-0.945-0.595-1.466-0.781
		c-0.521-0.186-1.032-0.279-1.535-0.279c-0.78,0-1.488,0.168-2.121,0.503s-1.177,0.777-1.633,1.326
		c-0.457,0.549-0.806,1.177-1.048,1.884c-0.241,0.707-0.362,1.434-0.362,2.178c0,0.781,0.141,1.525,0.419,2.232
		c0.278,0.708,0.66,1.326,1.145,1.856c0.483,0.53,1.056,0.954,1.717,1.271C231.184,52.222,231.895,52.38,232.658,52.38z"/>
</g>
</svg>
